<svg t="1698758034507" class="icon" viewBox="0 0 1024 1024" version="1.1" xmlns="http://www.w3.org/2000/svg" p-id="870" width="16" height="16"><path d="M232.727273 277.02303v178.424243h178.424242v-178.424243zM210.307879 232.727273h222.487273a22.186667 22.186667 0 0 1 22.186666 22.186666v222.487273a22.186667 22.186667 0 0 1-22.186666 22.186667H210.307879a22.186667 22.186667 0 0 1-22.186667-22.186667V254.913939A22.186667 22.186667 0 0 1 210.230303 232.727273zM231.098182 614.710303v178.424242h178.424242v-178.424242z m-22.186667-44.295758h222.564849a22.186667 22.186667 0 0 1 22.186666 22.186667v222.409697a22.186667 22.186667 0 0 1-22.186666 22.186667H208.911515a22.186667 22.186667 0 0 1-22.186667-22.186667V592.601212a22.186667 22.186667 0 0 1 22.186667-22.186667zM657.92 240.484848L532.092121 366.08l125.827879 125.827879L783.515152 366.08z m15.515152-47.010909l157.168484 157.168485a22.186667 22.186667 0 0 1 0 31.418182L673.590303 538.918788a22.109091 22.109091 0 0 1-31.030303 0l-157.478788-157.168485a22.186667 22.186667 0 0 1 0-31.418182L642.249697 193.163636a22.109091 22.109091 0 0 1 31.030303 0zM570.88 614.710303v178.424242h176.562424v-178.424242z m-22.109091-44.295758h220.935758a22.186667 22.186667 0 0 1 22.186666 22.186667v222.487273a22.186667 22.186667 0 0 1-22.186666 22.186667H548.770909a22.186667 22.186667 0 0 1-22.186667-22.186667V592.678788a22.109091 22.109091 0 0 1 22.109091-22.264243z" p-id="871"></path></svg>
